<svg xmlns="http://www.w3.org/2000/svg" viewBox="0 0 64 64" role="img" aria-labelledby="mac-favicon-title">
  <title id="mac-favicon-title">MAC Cleaning</title>
  <rect width="64" height="64" rx="14" fill="#fffaf0"/>
  <path d="M8 29 32 15l12.5 7.3V17l6 3.5V38" fill="none" stroke="#18558d" stroke-width="3.4" stroke-linecap="round" stroke-linejoin="round"/>
  <path d="M14 25v23M50 25v23" fill="none" stroke="#18558d" stroke-width="3.4" stroke-linecap="round"/>
  <rect x="28" y="23" width="4.7" height="4.7" fill="#18558d" rx=".5"/>
  <rect x="34" y="23" width="4.7" height="4.7" fill="#18558d" rx=".5"/>
  <rect x="28" y="29" width="4.7" height="4.7" fill="#18558d" rx=".5"/>
  <rect x="34" y="29" width="4.7" height="4.7" fill="#18558d" rx=".5"/>
  <text x="14" y="47" fill="#18558d" font-family="Manrope, Avenir Next, Segoe UI, sans-serif" font-size="20" font-weight="900" letter-spacing="-1.5">mac</text>
  <path d="M25 55c0-2 2-4.8 3.5-7.5C30 50.2 32 53 32 55a3.5 3.5 0 0 1-7 0z" fill="#18558d"/>
  <path d="M36 55c0-1.7 1.7-4 3-6.2 1.3 2.2 3 4.5 3 6.2a3 3 0 0 1-6 0z" fill="#18558d"/>
</svg>
