<svg xmlns="http://www.w3.org/2000/svg" viewBox="0 0 64 64">
  <path fill="#000" d="M5 28.5 32 13l27 15.5-1.9 3.2L32 17.3 6.9 31.7z"/>
  <path fill="#000" d="M8 30h3.7v17H8zm44.3 0H56v17h-3.7z"/>
  <path fill="#000" d="M28.7 22h3.2v3.2h-3.2zm4.4 0h3.2v3.2h-3.2zm-4.4 4.4h3.2v3.2h-3.2zm4.4 0h3.2v3.2h-3.2z"/>
  <text x="7.5" y="43" fill="#000" font-family="Arial Black, Avenir Next, sans-serif" font-size="18" font-weight="900" letter-spacing="-1.6">mac</text>
  <text x="13.5" y="50" fill="#000" font-family="Arial, Avenir Next, sans-serif" font-size="5.8" font-weight="900" letter-spacing="1.5">CLEANING</text>
  <path fill="#000" d="M15 57c0-1.4 1.4-3.3 2.3-5 1 1.7 2.4 3.6 2.4 5a2.35 2.35 0 0 1-4.7 0zm14.7 1c0-1.7 1.7-4 2.8-6 1.1 2 2.8 4.3 2.8 6a2.8 2.8 0 0 1-5.6 0zm14.6-1c0-1.4 1.4-3.3 2.3-5 1 1.7 2.4 3.6 2.4 5a2.35 2.35 0 0 1-4.7 0z"/>
</svg>
